<?xml version="1.0" standalone="no"?>
<!DOCTYPE svg PUBLIC "-//W3C//DTD SVG 20010904//EN"
 "http://www.w3.org/TR/2001/REC-SVG-20010904/DTD/svg10.dtd">
<svg version="1.0" xmlns="http://www.w3.org/2000/svg"
 width="700.000000pt" height="700.000000pt" viewBox="0 0 700.000000 700.000000"
 preserveAspectRatio="xMidYMid meet">
<metadata>
Created by potrace 1.14, written by Peter Selinger 2001-2017
</metadata>
<g transform="translate(0.000000,700.000000) scale(0.100000,-0.100000)"
fill="#000000" stroke="none">
<path d="M2690 6996 c-3 -2 -18 -6 -35 -9 -16 -3 -47 -8 -68 -12 -21 -4 -91
-24 -155 -45 -439 -143 -872 -385 -1216 -680 -152 -131 -370 -359 -476 -498
-14 -18 -35 -45 -48 -60 -34 -40 -205 -298 -243 -367 -201 -362 -332 -717
-414 -1115 -3 -16 -10 -68 -25 -182 -9 -76 -6 -1016 4 -1078 3 -19 8 -53 11
-75 3 -22 7 -51 10 -65 3 -14 8 -41 11 -60 4 -19 17 -80 30 -135 14 -55 27
-109 29 -120 3 -11 22 -74 44 -140 198 -608 520 -1061 963 -1358 200 -133 460
-243 668 -282 14 -3 36 -8 50 -12 14 -4 122 -8 241 -9 314 -2 396 11 867 145
152 44 309 86 347 94 76 16 347 21 393 8 15 -5 52 -14 82 -21 30 -7 172 -46
316 -86 144 -41 270 -76 280 -78 10 -2 51 -12 89 -21 121 -28 273 -42 470 -43
217 -1 295 11 498 79 829 274 1401 1065 1563 2159 10 70 18 351 18 650 -1 397
-7 482 -50 695 -109 538 -372 1088 -728 1524 -136 167 -306 339 -457 465 -52
43 -104 87 -117 97 -56 48 -309 213 -427 281 -276 157 -684 320 -861 343 -145
18 -144 18 -144 1 0 -9 2 -16 4 -16 7 0 232 -81 261 -94 17 -8 66 -29 110 -47
319 -131 646 -339 955 -608 50 -44 204 -198 270 -271 159 -174 321 -398 439
-603 61 -105 172 -331 186 -378 4 -13 13 -37 21 -54 86 -194 181 -586 218
-900 14 -118 16 -675 3 -735 -3 -14 -11 -61 -17 -105 -53 -383 -189 -787 -364
-1085 -54 -92 -132 -207 -181 -269 -353 -436 -792 -650 -1289 -628 -149 7
-165 9 -296 42 -75 19 -307 93 -400 128 -31 12 -248 77 -320 96 -176 47 -333
55 -520 25 -64 -10 -208 -52 -475 -139 -427 -139 -472 -149 -685 -150 -96 0
-200 4 -230 8 -746 105 -1330 786 -1534 1788 -22 111 -29 149 -42 239 -24 174
-24 704 0 825 2 11 7 45 10 75 30 237 120 576 223 830 274 680 810 1292 1463
1672 187 110 486 249 615 287 22 7 49 16 60 21 11 5 34 13 50 18 44 13 38 36
-10 40 -23 2 -43 1 -45 -2z"/>
<path d="M1720 5422 c-79 -4 -87 -8 -88 -46 -1 -32 1 -34 36 -41 64 -12 135
-52 191 -108 86 -86 122 -156 281 -537 56 -135 127 -303 157 -375 59 -141 73
-174 218 -520 53 -126 102 -243 109 -260 7 -16 73 -174 146 -350 73 -176 134
-321 135 -323 2 -2 38 -4 81 -5 75 -1 80 0 90 23 7 14 85 221 174 460 89 239
172 462 185 495 19 49 73 194 177 475 12 32 2 53 156 -315 297 -710 424 -1012
441 -1050 10 -22 22 -50 25 -62 6 -18 15 -23 44 -24 89 -2 125 0 132 8 3 4 63
159 133 343 69 184 172 459 230 610 373 982 587 1550 587 1557 0 5 -43 9 -95
9 -88 0 -95 -1 -101 -20 -3 -12 -9 -30 -14 -41 -5 -11 -45 -114 -89 -230 -43
-115 -145 -383 -226 -595 -80 -212 -192 -505 -248 -652 -56 -148 -104 -268
-107 -268 -3 0 -32 64 -64 143 -33 78 -92 219 -131 312 -40 94 -113 269 -164
390 -203 485 -243 576 -280 640 -118 207 -311 322 -586 351 -70 7 -295 8 -302
0 -2 -2 -5 -17 -8 -35 -3 -28 12 -49 35 -49 24 0 94 -27 135 -53 125 -78 196
-182 299 -434 21 -49 45 -108 55 -130 51 -113 64 -59 -135 -588 -98 -262 -181
-477 -184 -477 -3 0 -82 186 -177 413 -416 995 -405 971 -460 1053 -108 160
-259 252 -474 288 -87 15 -236 23 -319 18z"/>
<path d="M764 2389 c-14 -23 123 -250 237 -395 70 -89 224 -232 309 -289 93
-61 241 -134 340 -168 147 -50 223 -62 400 -62 288 0 381 20 765 160 179 65
374 116 496 130 59 6 324 6 374 0 171 -22 257 -47 672 -189 246 -84 330 -99
558 -100 213 0 249 4 389 46 361 107 648 345 871 723 61 103 74 138 55 150
-14 9 -40 -7 -99 -62 -70 -64 -228 -181 -322 -238 -254 -153 -560 -221 -864
-192 -168 16 -274 42 -502 123 -135 48 -272 94 -398 133 -39 13 -213 47 -290
58 -119 16 -498 8 -575 -12 -8 -2 -33 -6 -55 -10 -105 -15 -281 -67 -534 -159
-232 -84 -330 -109 -506 -129 -298 -34 -568 16 -825 151 -100 52 -181 108
-308 211 -169 138 -174 141 -188 120z"/>
<path d="M3345 673 c-50 -7 -110 -17 -135 -24 -25 -6 -53 -12 -63 -14 -26 -6
-30 -7 -252 -74 -330 -100 -402 -112 -680 -115 -214 -2 -332 20 -607 113 -86
29 -98 30 -98 4 0 -38 367 -231 610 -321 276 -103 567 -178 840 -217 95 -14
268 -20 545 -19 473 1 612 16 955 106 286 74 493 149 710 258 341 170 431 263
169 175 -252 -85 -372 -105 -609 -100 -212 4 -308 20 -550 92 -47 14 -130 38
-185 55 -285 84 -468 107 -650 81z"/>
</g>
</svg>
